<?xml version="1.0" encoding="utf-8"?>
<!-- Generator: Adobe Illustrator 16.0.0, SVG Export Plug-In . SVG Version: 6.00 Build 0)  -->
<!DOCTYPE svg PUBLIC "-//W3C//DTD SVG 1.1//EN" "http://www.w3.org/Graphics/SVG/1.1/DTD/svg11.dtd">
<svg version="1.1" id="Layer_1" xmlns="http://www.w3.org/2000/svg" xmlns:xlink="http://www.w3.org/1999/xlink" x="0px" y="0px"
	 width="39.686px" height="39.686px" viewBox="0 0 39.686 39.686" enable-background="new 0 0 39.686 39.686" xml:space="preserve">
<g id="color_base">
	<g>
		<path fill="#F3796D" d="M10.343,19.343c0,4.971,4.029,9,9,9s9-4.029,9-9H10.343z"/>
	</g>
</g>
<g id="shadow_4_" opacity="0.502">
	<g>
		<path fill="#959595" d="M27.112,19.343c-0.91,4.007-4.487,7-8.77,7c-3.11,0-5.852-1.578-7.469-3.978
			c1.243,3.481,4.56,5.978,8.469,5.978c4.971,0,9-4.029,9-9H27.112z"/>
	</g>
</g>
<g id="shine_4_" opacity="0.502">
	<g>
		<path fill="#FFFFFF" d="M19.343,19.343h-6c-0.552,0-1,0.447-1,1s0.448,1,1,1h6c0.553,0,1-0.447,1-1S19.896,19.343,19.343,19.343z"
			/>
	</g>
</g>
<g id="outline_4_">
	<g>
		<path fill-rule="evenodd" clip-rule="evenodd" fill="#384C67" d="M15.496,29.343h7.695c1.359-0.682,2.567-1.713,3.545-3h3.607
			c2.209,0,4-1.791,4-4s-1.791-4-4-4c-0.35,0-0.684,0.06-1.007,0.144c0.001-0.074,0.007-0.146,0.007-0.221
			c0-0.51-0.344-0.923-0.77-0.923H10.112c-0.425,0-0.769,0.413-0.769,0.923C9.343,23.257,11.883,27.534,15.496,29.343z
			 M29.119,20.771c0.339-0.265,0.761-0.429,1.224-0.429c1.104,0,2,0.896,2,2s-0.896,2-2,2h-2.379
			C28.499,23.251,28.893,22.049,29.119,20.771z M27.343,19.343c0,4.418-3.582,8-8,8c-4.418,0-8-3.582-8-8H27.343z M33.343,31.343
			h-10h-8h-10c-0.552,0-1,0.447-1,1s0.448,1,1,1h9c0,0.553,0.448,1,1,1h8c0.553,0,1-0.447,1-1h9c0.553,0,1-0.447,1-1
			S33.896,31.343,33.343,31.343z M24.343,12.343c0,0.725-0.357,0.862-0.587,1.486c-0.057,0.104-0.089,0.215-0.097,0.339
			c-0.035,0.591,0.217,1.175,1.084,1.175c0.441,0,0.625-0.453,0.8-0.75c0.335-0.531,0.8-1.333,0.8-2.25
			c0-1.265-0.418-1.838-0.832-2.562c-0.479-0.837-1.168-1.066-1.168-2.438c0-0.73,0.436-0.96,0.662-1.6
			c0.055-0.102,0.082-0.211,0.092-0.332c0.035-0.414-0.322-1.068-1.154-1.068c-0.441,0-0.6,0.383-0.8,0.75
			c-0.313,0.599-0.8,1.322-0.8,2.25c0,1.478,0.439,1.749,0.852,2.438C23.61,10.474,24.343,11.078,24.343,12.343z M19.343,12.343
			c0,0.725-0.357,0.862-0.587,1.486c-0.057,0.104-0.089,0.215-0.096,0.339c-0.036,0.591,0.216,1.175,1.083,1.175
			c0.441,0,0.625-0.453,0.8-0.75c0.335-0.531,0.8-1.333,0.8-2.25c0-1.265-0.418-1.838-0.832-2.562
			c-0.479-0.837-1.168-1.066-1.168-2.438c0-0.73,0.436-0.96,0.662-1.6c0.055-0.102,0.082-0.211,0.092-0.332
			c0.035-0.414-0.322-1.068-1.154-1.068c-0.441,0-0.6,0.383-0.8,0.75c-0.313,0.599-0.8,1.322-0.8,2.25
			c0,1.478,0.439,1.749,0.852,2.438C18.61,10.474,19.343,11.078,19.343,12.343z M14.343,12.343c0,0.725-0.358,0.862-0.587,1.486
			c-0.057,0.104-0.089,0.215-0.096,0.339c-0.036,0.591,0.216,1.175,1.083,1.175c0.442,0,0.625-0.453,0.8-0.75
			c0.334-0.531,0.8-1.333,0.8-2.25c0-1.265-0.418-1.838-0.833-2.562c-0.478-0.837-1.167-1.066-1.167-2.438
			c0-0.73,0.435-0.96,0.663-1.6c0.054-0.102,0.081-0.211,0.091-0.332c0.036-0.414-0.323-1.068-1.154-1.068
			c-0.442,0-0.6,0.383-0.8,0.75c-0.313,0.599-0.8,1.322-0.8,2.25c0,1.478,0.439,1.749,0.852,2.438
			C13.61,10.474,14.343,11.078,14.343,12.343z"/>
	</g>
</g>
</svg>
