<?xml version="1.0" encoding="utf-8"?>
<!-- Generator: Adobe Illustrator 16.0.0, SVG Export Plug-In . SVG Version: 6.00 Build 0)  -->
<!DOCTYPE svg PUBLIC "-//W3C//DTD SVG 1.1//EN" "http://www.w3.org/Graphics/SVG/1.1/DTD/svg11.dtd">
<svg version="1.1" id="Layer_2" xmlns="http://www.w3.org/2000/svg" xmlns:xlink="http://www.w3.org/1999/xlink" x="0px" y="0px"
	 width="39.686px" height="39.686px" viewBox="0 0 39.686 39.686" enable-background="new 0 0 39.686 39.686" xml:space="preserve">
<g id="Ellipse_11">
	<g>
		<circle fill="#FFF2CD" cx="19.843" cy="21.843" r="12"/>
	</g>
</g>
<g id="shine_5_" opacity="0.502">
	<g>
		<path fill="#FFFFFF" d="M19.843,11.843c-5.522,0-10,4.478-10,10c0,0.553,0.448,1,1,1s1-0.447,1-1c0-4.418,3.581-8,8-8
			c0.552,0,1-0.447,1-1S20.395,11.843,19.843,11.843z"/>
	</g>
</g>
<g id="shadow_5_" opacity="0.502">
	<g>
		<path fill="#959595" d="M29.843,20.843c-0.552,0-1,0.447-1,1c0,4.971-4.029,9-9,9c-0.552,0-1,0.447-1,1s0.448,1,1,1
			c6.075,0,11-4.925,11-11C30.843,21.29,30.395,20.843,29.843,20.843z"/>
	</g>
</g>
<g id="outline_5_">
	<g>
		<path fill="#384C67" d="M27.412,11.292l1.263-1.895l-0.015-0.01c0.105-0.159,0.183-0.34,0.183-0.545c0-0.553-0.448-1-1-1
			c-0.347,0-0.638,0.188-0.817,0.455l-0.015-0.01L25.7,10.254c-1.483-0.749-3.126-1.229-4.868-1.361
			c0.002-0.018,0.011-0.032,0.011-0.05v-2h2c0.552,0,1-0.447,1-1s-0.448-1-1-1h-6c-0.552,0-1,0.447-1,1s0.448,1,1,1h2v2
			c0,0.018,0.009,0.032,0.011,0.05C12.137,9.4,6.843,14.997,6.843,21.843c0,7.18,5.82,13,13,13s13-5.82,13-13
			C32.843,17.49,30.697,13.648,27.412,11.292z M19.843,32.843c-6.075,0-11-4.925-11-11s4.925-11,11-11s11,4.925,11,11
			S25.918,32.843,19.843,32.843z"/>
	</g>
</g>
<g id="Rounded_Rectangle_4">
	<g>
		<path fill="#DF6251" d="M26.537,15.148c-0.408-0.408-1.069-0.408-1.478,0l-5.911,5.91c-0.408,0.408-0.408,1.07,0,1.479
			c0.408,0.407,1.07,0.407,1.479,0l5.91-5.911C26.945,16.218,26.945,15.557,26.537,15.148z"/>
	</g>
</g>
</svg>
