<?xml version="1.0" encoding="utf-8"?>
<!-- Generator: Adobe Illustrator 16.0.0, SVG Export Plug-In . SVG Version: 6.00 Build 0)  -->
<!DOCTYPE svg PUBLIC "-//W3C//DTD SVG 1.1//EN" "http://www.w3.org/Graphics/SVG/1.1/DTD/svg11.dtd">
<svg version="1.1" id="Layer_2" xmlns="http://www.w3.org/2000/svg" xmlns:xlink="http://www.w3.org/1999/xlink" x="0px" y="0px"
	 width="39.686px" height="39.686px" viewBox="0 0 39.686 39.686" enable-background="new 0 0 39.686 39.686" xml:space="preserve">
<g id="base_color_2_">
	<g>
		<path fill="#F1F1F3" d="M20.375,25.013l-3.555,2.052c-1.191-1.297-2.865-2.292-4.632-2.697l-0.056-4.154H8.194v4.099
			c-0.338,0.077-0.664,0.184-0.984,0.302v2.491c0.897-0.436,1.892-0.698,2.954-0.698c3.807,0,6.78,3.007,6.78,6.854h2.136
			c0-0.92-0.025-1.863-0.281-2.698l3.546-2.102L20.375,25.013z M31.16,15.971l-0.108-0.061c0.169-0.486,0.224-1.108,0.224-1.649
			c0-0.542-0.055-1.163-0.224-1.65l0.108-0.061c0.486-0.271,0.652-0.869,0.372-1.338s-0.901-0.629-1.388-0.358l-0.107,0.059
			c-0.717-0.777-1.729-1.346-2.827-1.561v-0.1c0-0.541-0.455-0.979-1.017-0.979c-0.561,0-1.016,0.438-1.016,0.979v0.1
			c-1.099,0.215-2.169,0.838-2.885,1.615l-0.107-0.059c-0.486-0.271-1.107-0.11-1.389,0.358c-0.279,0.469-0.113,1.067,0.373,1.338
			l0.108,0.061c-0.169,0.487-0.166,1.054-0.166,1.596c0,0.541-0.003,1.107,0.166,1.595l-0.108,0.061
			c-0.486,0.271-0.652,0.87-0.373,1.339c0.281,0.468,0.902,0.629,1.389,0.358l0.107-0.06c0.716,0.778,1.786,1.401,2.885,1.616v0.099
			c0,0.541,0.455,0.979,1.016,0.979c0.562,0,1.017-0.438,1.017-0.979V19.17c1.099-0.215,2.11-0.783,2.827-1.562l0.107,0.06
			c0.486,0.271,1.107,0.11,1.388-0.358S31.646,16.242,31.16,15.971z"/>
	</g>
</g>
<g id="shadow_8_" opacity="0.502">
	<g>
		<path fill-rule="evenodd" clip-rule="evenodd" fill="#959595" d="M12.21,21.26c-0.552,0-1,0.447-1,1v2c0,0.553,0.448,1,1,1
			s1-0.447,1-1v-2C13.21,21.708,12.762,21.26,12.21,21.26z M20.705,28.269L19.21,29.26c-0.391,0.391-0.473,1.121-0.082,1.512
			s1.023,0.391,1.414,0l1.513-0.991c0.39-0.39,0.455-1.121,0.064-1.512S21.096,27.878,20.705,28.269z M31.21,13.26
			c-0.552,0-1,0.447-1,1c0,2.209-1.791,4-4,4c-0.552,0-1,0.447-1,1s0.448,1,1,1c3.313,0,6-2.687,6-6
			C32.21,13.708,31.762,13.26,31.21,13.26z"/>
	</g>
</g>
<g id="shine_8_" opacity="0.502">
	<g>
		<path fill-rule="evenodd" clip-rule="evenodd" fill="#FFFFFF" d="M9.21,20.26c-0.552,0-1,0.447-1,1v1c0,0.553,0.448,1,1,1
			s1-0.447,1-1v-1C10.21,20.708,9.762,20.26,9.21,20.26z M19.089,25.846l-0.708,0.707c-0.39,0.391-0.39,1.023,0,1.414
			c0.391,0.391,1.024,0.391,1.415,0l0.707-0.707c0.391-0.391,0.391-1.023,0-1.414S19.479,25.456,19.089,25.846z M21.21,14.26h2
			c0-1.657,1.343-3,3-3v-2C23.449,9.26,21.21,11.499,21.21,14.26z"/>
	</g>
</g>
<g id="outline_8_">
	<g>
		<path fill="#384C67" d="M21.473,23.163c-0.272-0.479-0.875-0.643-1.348-0.366l-3.211,1.88c-0.848-0.689-1.8-1.247-2.828-1.654
			V19.26c0-0.553-0.441-1-0.986-1H7.182c-0.544,0-0.985,0.447-0.985,1v3.762c-0.343,0.136-0.662,0.312-0.986,0.479
			c0,0,0,3.088,0,5.79c0,0.005,0.008,0.006,0.009,0.01c0.021,0.532,0.447,0.959,0.978,0.959c0.544,0,0.955-0.666,0.985-1
			c0.34-0.495,1.76-1,2.959-1c3.186,0,4.932,2.582,4.932,6c0,0.553,0.441,1,0.986,1h3.944c0.544,0,0.985-0.447,0.985-1
			c0-0.563-0.055-2.112-0.135-2.652l3.217-1.884c0.472-0.276,0.633-0.888,0.361-1.366L21.473,23.163z M18.623,30.604
			c0.255,0.84,0.394,1.731,0.394,2.656h-1.973c0-3.866-3.091-7-6.903-7c-1.064,0-2.06,0.265-2.959,0.702v-2.168
			c0.321-0.119,0.648-0.226,0.986-0.304v-4.23h4.042l0.001,4.23c1.77,0.408,3.236,1.352,4.43,2.655l3.617-2.118l1.973,3.465
			L18.623,30.604z M26.212,11.26c-1.634,0-2.958,1.343-2.958,3s1.324,3,2.958,3s2.958-1.343,2.958-3S27.846,11.26,26.212,11.26z
			 M26.212,15.26c-0.544,0-0.986-0.447-0.986-1s0.442-1,0.986-1c0.545,0,0.986,0.447,0.986,1S26.757,15.26,26.212,15.26z
			 M33.982,16.528l-1.118-0.654c0.122-0.52,0.202-1.056,0.202-1.613s-0.08-1.094-0.202-1.613l1.118-0.654
			c0.471-0.276,0.633-0.888,0.36-1.366l-0.985-1.732c-0.273-0.479-0.876-0.642-1.348-0.366l-1.118,0.654
			c-0.771-0.738-1.713-1.279-2.756-1.597V6.26c0-0.553-0.441-1-0.986-1h-1.972c-0.545,0-0.986,0.447-0.986,1v1.325
			c-1.043,0.317-1.985,0.858-2.757,1.597l-1.118-0.654c-0.471-0.275-1.074-0.112-1.347,0.366l-0.985,1.732
			c-0.273,0.479-0.111,1.09,0.36,1.366l1.118,0.654c-0.122,0.52-0.203,1.056-0.203,1.613s0.081,1.094,0.203,1.613l-1.118,0.654
			c-0.472,0.276-0.634,0.888-0.36,1.366l0.985,1.732c0.272,0.479,0.876,0.642,1.347,0.366l1.118-0.654
			c0.771,0.738,1.714,1.279,2.757,1.597v1.325c0,0.553,0.441,1,0.986,1h1.972c0.545,0,0.986-0.447,0.986-1v-1.325
			c1.043-0.317,1.985-0.858,2.756-1.597l1.118,0.654c0.472,0.275,1.074,0.112,1.348-0.366l0.985-1.732
			C34.615,17.416,34.453,16.804,33.982,16.528z M31.094,14.26c0,0.553-0.109,1.075-0.272,1.572l0.105,0.062
			c0.472,0.276,0.634,0.888,0.36,1.366c-0.271,0.479-0.875,0.643-1.347,0.366l-0.103-0.061c-0.696,0.794-1.623,1.374-2.688,1.594
			v0.101c0,0.553-0.441,1-0.986,1c-0.544,0-0.985-0.447-0.985-1V19.16c-1.066-0.22-1.993-0.8-2.688-1.594l-0.103,0.061
			c-0.473,0.276-1.075,0.112-1.348-0.366s-0.111-1.09,0.361-1.366l0.105-0.062c-0.164-0.497-0.273-1.02-0.273-1.572
			s0.109-1.075,0.273-1.572L21.4,12.626c-0.473-0.276-0.634-0.888-0.361-1.366s0.875-0.643,1.348-0.366l0.103,0.061
			c0.695-0.794,1.622-1.374,2.688-1.594V9.26c0-0.553,0.441-1,0.985-1c0.545,0,0.986,0.447,0.986,1v0.101
			c1.065,0.22,1.992,0.8,2.688,1.594l0.103-0.061c0.472-0.276,1.075-0.112,1.347,0.366c0.273,0.479,0.111,1.09-0.36,1.366
			l-0.105,0.062C30.984,13.185,31.094,13.708,31.094,14.26z"/>
	</g>
</g>
</svg>
